<?xml version="1.0" standalone="no"?>
<!DOCTYPE svg PUBLIC "-//W3C//DTD SVG 20010904//EN"
 "http://www.w3.org/TR/2001/REC-SVG-20010904/DTD/svg10.dtd">
<svg version="1.0" xmlns="http://www.w3.org/2000/svg"
 width="2000.000000pt" height="2000.000000pt" viewBox="0 0 2000.000000 2000.000000"
 preserveAspectRatio="xMidYMid meet">
<metadata>
Created by potrace 1.11, written by Peter Selinger 2001-2013
</metadata>
<g transform="translate(0.000000,2000.000000) scale(0.100000,-0.100000)"
fill="#000000" stroke="none">
<path d="M2628 15695 c-2 -1 -46 -5 -98 -9 -627 -41 -1020 -295 -1144 -736
-24 -87 -28 -126 -31 -274 -5 -410 172 -906 548 -1531 86 -142 252 -394 340
-515 91 -125 273 -366 283 -375 6 -5 26 -30 44 -55 41 -54 361 -439 385 -464
10 -9 33 -36 52 -59 20 -23 72 -82 117 -131 44 -49 89 -98 99 -110 176 -203
917 -944 1242 -1241 17 -15 73 -66 125 -115 114 -104 486 -433 635 -560 28
-23 61 -52 75 -64 54 -46 329 -275 405 -336 44 -36 89 -73 100 -84 11 -10 36
-30 55 -45 19 -14 85 -66 146 -116 163 -131 447 -352 704 -545 91 -69 170
-128 175 -133 6 -4 51 -37 100 -73 50 -36 101 -74 115 -84 147 -109 384 -278
675 -481 77 -54 145 -102 150 -106 6 -5 34 -24 63 -42 30 -19 59 -39 65 -45 7
-6 37 -27 67 -46 30 -19 57 -37 60 -40 5 -6 352 -237 382 -255 10 -5 83 -53
163 -105 80 -52 153 -100 163 -105 15 -9 85 -54 202 -130 19 -13 64 -41 100
-62 36 -22 133 -82 215 -133 142 -88 515 -313 580 -350 16 -9 127 -73 245
-142 118 -68 240 -138 270 -155 77 -42 130 -72 165 -93 35 -21 118 -65 235
-127 47 -25 90 -49 95 -53 6 -4 78 -42 160 -85 83 -43 155 -81 160 -86 16 -12
747 -378 885 -443 211 -100 461 -216 465 -216 1 0 41 -18 88 -40 256 -119 830
-355 1192 -490 211 -79 687 -240 865 -293 117 -35 230 -68 249 -73 9 -2 50
-13 91 -25 41 -11 91 -25 110 -29 19 -4 112 -26 205 -49 94 -22 188 -43 210
-47 22 -3 42 -7 46 -9 7 -5 208 -42 294 -55 236 -36 258 -39 330 -46 39 -3 81
-8 95 -10 47 -6 305 -17 385 -17 86 0 299 11 331 17 10 2 44 7 74 11 92 13 87
12 165 29 149 32 337 109 446 182 190 127 310 297 370 524 29 110 35 349 14
490 -84 541 -414 1196 -997 1977 -94 127 -268 348 -346 442 -137 164 -191 227
-286 336 -43 49 -99 113 -124 140 -25 28 -69 75 -96 105 -204 223 -319 342
-591 615 -171 170 -349 346 -396 390 -270 254 -352 330 -358 333 -5 1 -2 33 5
70 14 77 20 121 29 212 3 36 8 79 11 95 17 127 24 601 11 790 -11 155 -24 286
-32 335 -2 14 -7 50 -11 80 -3 30 -7 58 -9 61 -2 3 -6 27 -10 55 -3 27 -7 56
-10 64 -2 8 -7 31 -10 50 -25 149 -111 471 -182 680 -147 434 -377 887 -636
1255 -65 92 -227 305 -252 331 -6 6 -27 31 -46 54 -115 142 -366 392 -544 545
-38 33 -72 62 -75 65 -3 3 -45 37 -95 75 -49 39 -94 73 -100 78 -5 4 -35 25
-65 47 -30 22 -60 43 -66 47 -5 4 -17 13 -26 18 -9 6 -49 32 -90 60 -211 142
-597 349 -833 445 -44 18 -89 37 -100 41 -68 30 -374 135 -416 144 -9 2 -47
12 -85 24 -38 11 -80 22 -94 25 -14 3 -43 10 -65 16 -22 6 -60 15 -85 19 -25
5 -56 12 -70 15 -60 14 -239 46 -280 51 -24 3 -72 9 -150 20 -19 3 -57 7 -85
10 -27 2 -90 7 -140 12 -180 16 -708 8 -880 -12 -16 -2 -55 -7 -85 -10 -289
-33 -642 -109 -930 -200 -114 -37 -307 -105 -365 -130 -204 -87 -272 -118
-400 -182 -82 -41 -155 -79 -162 -85 -7 -5 -27 -18 -45 -27 -59 -31 -133 -73
-146 -84 -14 -11 -37 -1 -232 91 -69 33 -192 90 -275 126 -82 37 -169 76 -191
86 -184 83 -788 331 -993 407 -53 19 -112 41 -131 49 -538 202 -1237 407
-1720 505 -185 37 -174 35 -231 43 -72 11 -146 23 -185 30 -26 5 -191 25 -259
31 -27 3 -79 7 -115 11 -66 6 -447 13 -452 9z m2412 -1778 c71 -8 156 -20 175
-23 11 -2 34 -7 50 -10 17 -3 64 -12 105 -21 41 -8 86 -17 99 -20 14 -2 28 -6
31 -8 4 -2 20 -7 36 -9 57 -11 70 -14 214 -56 241 -69 663 -211 683 -229 4 -4
-14 -29 -39 -57 -48 -51 -180 -198 -224 -250 -14 -16 -48 -58 -75 -94 -28 -36
-56 -71 -63 -79 -20 -21 -175 -241 -206 -291 -15 -25 -48 -79 -74 -120 -58
-92 -157 -263 -155 -270 0 -3 -7 -16 -16 -30 -17 -25 -72 -136 -131 -265 -37
-81 -47 -104 -85 -200 -15 -38 -33 -83 -40 -100 -7 -16 -18 -48 -25 -70 -19
-59 -21 -60 -49 -28 -21 24 -132 148 -186 207 -17 19 -121 140 -142 166 -12
14 -45 54 -75 90 -228 274 -440 595 -553 833 -90 193 -124 312 -131 457 -12
273 145 432 473 479 55 8 329 6 403 -2z m9691 -5985 c76 -83 168 -188 231
-264 33 -40 70 -84 82 -98 135 -158 377 -500 460 -650 158 -283 224 -467 231
-640 7 -151 -25 -250 -108 -334 -74 -76 -205 -134 -344 -153 -74 -10 -315 -10
-413 -1 -340 33 -877 174 -1345 353 -38 15 -74 28 -80 29 -5 2 -23 8 -40 15
l-29 12 44 41 c167 153 340 330 490 504 48 56 168 210 228 294 34 47 65 90 69
95 36 45 187 289 262 425 43 76 187 370 195 398 4 12 11 22 15 22 5 0 28 -22
52 -48z"/>
<path d="M5055 9248 c3 -13 7 -43 10 -68 3 -25 7 -52 10 -60 2 -8 7 -28 9 -45
73 -427 263 -982 480 -1400 245 -469 529 -857 901 -1231 193 -194 304 -291
550 -482 110 -85 440 -302 515 -339 8 -4 38 -20 65 -36 165 -98 468 -236 725
-332 235 -87 661 -202 845 -229 22 -3 51 -8 65 -10 42 -8 149 -22 300 -40 126
-16 262 -21 530 -20 265 0 331 3 490 19 192 20 405 54 575 92 143 31 135 24
63 62 -361 192 -569 304 -803 436 -27 16 -75 42 -105 58 -30 16 -72 40 -92 53
-21 13 -41 24 -45 24 -3 0 -14 6 -22 14 -9 7 -41 27 -73 44 -209 113 -943 560
-1363 830 -250 161 -796 522 -805 533 -3 3 -45 33 -95 67 -49 33 -148 101
-220 151 -71 50 -141 99 -155 108 -69 48 -429 307 -530 382 -138 102 -379 281
-400 298 -8 7 -33 26 -55 42 -22 17 -44 34 -50 39 -5 4 -28 21 -50 37 -22 17
-46 35 -55 42 -8 7 -91 72 -185 145 -93 72 -172 134 -175 138 -3 3 -50 41
-105 84 -114 91 -403 325 -456 370 -19 17 -46 40 -60 51 -13 11 -67 56 -119
101 -116 99 -120 101 -115 72z"/>
</g>
</svg>
